<svg width="129" height="28" viewBox="0 0 129 28" fill="none" xmlns="http://www.w3.org/2000/svg">
<path d="M12.6035 1.40625H17.877V19.125C17.877 20.7539 17.5137 22.1953 16.7871 23.4492C16.0723 24.6914 15.0586 25.6523 13.7461 26.332C12.4336 27.0117 10.9512 27.3516 9.29883 27.3516C6.5918 27.3516 4.48242 26.666 2.9707 25.2949C1.45898 23.9121 0.703125 21.9609 0.703125 19.4414H6.01172C6.01172 20.6953 6.27539 21.6211 6.80273 22.2188C7.33008 22.8164 8.16211 23.1152 9.29883 23.1152C10.3066 23.1152 11.1094 22.7695 11.707 22.0781C12.3047 21.3867 12.6035 20.4023 12.6035 19.125V1.40625ZM36.457 21.7266H27.2109L25.4531 27H19.8457L29.373 1.40625H34.2598L43.8398 27H38.2324L36.457 21.7266ZM28.6348 17.4551H35.0332L31.8164 7.875L28.6348 17.4551ZM65.9355 18.4746C65.7363 21.2285 64.7168 23.3965 62.877 24.9785C61.0488 26.5605 58.6348 27.3516 55.6348 27.3516C52.3535 27.3516 49.7695 26.25 47.8828 24.0469C46.0078 21.832 45.0703 18.7969 45.0703 14.9414V13.377C45.0703 10.916 45.5039 8.74805 46.3711 6.87305C47.2383 4.99805 48.4746 3.5625 50.0801 2.56641C51.6973 1.55859 53.5723 1.05469 55.7051 1.05469C58.6582 1.05469 61.0371 1.8457 62.8418 3.42773C64.6465 5.00977 65.6895 7.23047 65.9707 10.0898H60.6973C60.5684 8.4375 60.1055 7.24219 59.3086 6.50391C58.5234 5.75391 57.3223 5.37891 55.7051 5.37891C53.9473 5.37891 52.6289 6.01172 51.75 7.27734C50.8828 8.53125 50.4375 10.4824 50.4141 13.1309V15.0645C50.4141 17.8301 50.8301 19.8516 51.6621 21.1289C52.5059 22.4062 53.8301 23.0449 55.6348 23.0449C57.2637 23.0449 58.4766 22.6758 59.2734 21.9375C60.082 21.1875 60.5449 20.0332 60.6621 18.4746H65.9355Z" fill="white"/>
<path d="M69.3281 24.5039C69.3281 23.6953 69.5977 23.0391 70.1367 22.5352C70.6875 22.0312 71.373 21.7793 72.1934 21.7793C73.0254 21.7793 73.7109 22.0312 74.25 22.5352C74.8008 23.0391 75.0762 23.6953 75.0762 24.5039C75.0762 25.3008 74.8066 25.9512 74.2676 26.4551C73.7285 26.9473 73.0371 27.1934 72.1934 27.1934C71.3613 27.1934 70.6758 26.9473 70.1367 26.4551C69.5977 25.9512 69.3281 25.3008 69.3281 24.5039Z" fill="#555555"/>
<path d="M90.2285 12.7441C89.5371 12.6504 88.9277 12.6035 88.4004 12.6035C86.4785 12.6035 85.2188 13.2539 84.6211 14.5547V27H79.541V7.98047H84.3398L84.4805 10.248C85.5 8.50195 86.9121 7.62891 88.7168 7.62891C89.2793 7.62891 89.8066 7.70508 90.2988 7.85742L90.2285 12.7441ZM101.092 27.3516C98.3027 27.3516 96.0293 26.4961 94.2715 24.7852C92.5254 23.0742 91.6523 20.7949 91.6523 17.9473V17.4551C91.6523 15.5449 92.0215 13.8398 92.7598 12.3398C93.498 10.8281 94.541 9.66797 95.8887 8.85938C97.248 8.03906 98.7949 7.62891 100.529 7.62891C103.131 7.62891 105.176 8.44922 106.664 10.0898C108.164 11.7305 108.914 14.0566 108.914 17.0684V19.1426H96.8027C96.9668 20.3848 97.459 21.3809 98.2793 22.1309C99.1113 22.8809 100.16 23.2559 101.426 23.2559C103.383 23.2559 104.912 22.5469 106.014 21.1289L108.51 23.9238C107.748 25.002 106.717 25.8457 105.416 26.4551C104.115 27.0527 102.674 27.3516 101.092 27.3516ZM100.512 11.7422C99.5039 11.7422 98.6836 12.082 98.0508 12.7617C97.4297 13.4414 97.0312 14.4141 96.8555 15.6797H103.922V15.2754C103.898 14.1504 103.594 13.2832 103.008 12.6738C102.422 12.0527 101.59 11.7422 100.512 11.7422ZM111.023 17.3496C111.023 14.3848 111.686 12.0234 113.01 10.2656C114.346 8.50781 116.168 7.62891 118.477 7.62891C120.328 7.62891 121.857 8.32031 123.064 9.70312V0H128.162V27H123.574L123.328 24.9785C122.062 26.5605 120.434 27.3516 118.441 27.3516C116.203 27.3516 114.404 26.4727 113.045 24.7148C111.697 22.9453 111.023 20.4902 111.023 17.3496ZM116.104 17.7188C116.104 19.5 116.414 20.8652 117.035 21.8145C117.656 22.7637 118.559 23.2383 119.742 23.2383C121.312 23.2383 122.42 22.5762 123.064 21.252V13.7461C122.432 12.4219 121.336 11.7598 119.777 11.7598C117.328 11.7598 116.104 13.7461 116.104 17.7188Z" fill="#EC1D1D"/>
</svg>
