<svg width="31" height="31" viewBox="0 0 31 31" fill="none" xmlns="http://www.w3.org/2000/svg">
<path d="M6.72378 26.3537H0.90559C0.472396 26.3537 0.119965 26.7062 0.119965 27.1394V30.2144C0.119965 30.6476 0.472396 31 0.90559 31H6.72378C7.15697 31 7.5094 30.6476 7.5094 30.2144V27.1394C7.5094 26.7062 7.15697 26.3537 6.72378 26.3537Z" fill="#F32121"/>
<path d="M15.6541 0H15.3459C6.95027 0 0.119965 6.83031 0.119965 15.226V21.6049C0.119965 21.9919 0.386527 22.5675 1.12101 22.5675H6.54756C7.25313 22.5675 7.50932 21.9894 7.50932 21.6009V15.2259C7.50932 10.9048 11.0248 7.38936 15.3458 7.38936H15.6541C19.9751 7.38936 23.4905 10.9048 23.4905 15.2259V21.6221C23.4905 22.0022 23.7498 22.5674 24.4639 22.5674H29.8259C30.5993 22.5674 30.88 22.0278 30.88 21.6651V15.2259C30.88 6.83031 24.0497 0 15.6541 0Z" fill="white"/>
<path d="M30.0943 26.3537H24.2761C23.8429 26.3537 23.4905 26.7062 23.4905 27.1394V30.2144C23.4905 30.6476 23.8429 31 24.2761 31H30.0943C30.5275 31 30.8799 30.6476 30.8799 30.2144V27.1394C30.8799 26.7062 30.5275 26.3537 30.0943 26.3537Z" fill="#F32121"/>
</svg>
