<svg width="43" height="43" viewBox="0 0 43 43" fill="none" xmlns="http://www.w3.org/2000/svg">
<path fill-rule="evenodd" clip-rule="evenodd" d="M43 17C43 26.3888 35.3889 34 26 34C23.1045 34 20.3781 33.2761 17.9919 31.9995L8.54593 41.4454C6.78857 43.2028 3.93933 43.2028 2.18197 41.4454C0.424613 39.6881 0.424613 36.8388 2.18197 35.0815L11.4563 25.8071C9.89752 23.2385 9.00002 20.2241 9.00002 17C9.00002 7.61116 16.6112 0 26 0C35.3889 0 43 7.61116 43 17ZM37 17C37 23.0751 32.0752 28 26 28C19.9249 28 15 23.0751 15 17C15 10.9249 19.9249 6 26 6C32.0752 6 37 10.9249 37 17Z" fill="white"/>
</svg>
